<?xml version="1.0" encoding="UTF-8" standalone="no"?>
<!DOCTYPE svg PUBLIC "-//W3C//DTD SVG 1.1//EN"
 "http://www.w3.org/Graphics/SVG/1.1/DTD/svg11.dtd">
<!-- Generated by graphviz version 2.38.0 (20140413.2041)
 -->
<!-- Title: structs Pages: 1 -->
<svg width="1898pt" height="341pt"
 viewBox="0.00 0.00 1898.00 341.00" xmlns="http://www.w3.org/2000/svg" xmlns:xlink="http://www.w3.org/1999/xlink">
<g id="graph0" class="graph" transform="scale(1 1) rotate(0) translate(4 337)">
<title>structs</title>
<polygon fill="white" stroke="none" points="-4,4 -4,-337 1894,-337 1894,4 -4,4"/>
<!-- WORC_example__config_classification_source -->
<g id="node1" class="node"><title>WORC_example__config_classification_source</title>
<polygon fill="#caff70" stroke="black" points="944,-23.5 944,-69.5 1184,-69.5 1184,-23.5 944,-23.5"/>
<text text-anchor="middle" x="1064" y="-54.3" font-family="Times New Roman,serif" font-size="14.00">config_classification_source</text>
<polyline fill="none" stroke="black" points="944,-46.5 1184,-46.5 "/>
<text text-anchor="middle" x="990" y="-31.3" font-family="Times New Roman,serif" font-size="14.00"> </text>
<polyline fill="none" stroke="black" points="1036,-23.5 1036,-46.5 "/>
<text text-anchor="middle" x="1110" y="-31.3" font-family="Times New Roman,serif" font-size="14.00">output [N]</text>
</g>
<!-- WORC_example__classify -->
<g id="node3" class="node"><title>WORC_example__classify</title>
<polygon fill="#e5e5e5" stroke="black" points="1262,-65.5 1262,-157.5 1638,-157.5 1638,-65.5 1262,-65.5"/>
<text text-anchor="middle" x="1450" y="-142.3" font-family="Times New Roman,serif" font-size="14.00">classify</text>
<polyline fill="none" stroke="black" points="1262,-134.5 1638,-134.5 "/>
<text text-anchor="middle" x="1362" y="-119.3" font-family="Times New Roman,serif" font-size="14.00">[O] features_train</text>
<polyline fill="none" stroke="black" points="1262,-111.5 1462,-111.5 "/>
<text text-anchor="middle" x="1362" y="-96.3" font-family="Times New Roman,serif" font-size="14.00">[O] patientclass_train</text>
<polyline fill="none" stroke="black" points="1262,-88.5 1462,-88.5 "/>
<text text-anchor="middle" x="1362" y="-73.3" font-family="Times New Roman,serif" font-size="14.00">[O] config</text>
<polyline fill="none" stroke="black" points="1462,-65.5 1462,-134.5 "/>
<text text-anchor="middle" x="1550" y="-113.8" font-family="Times New Roman,serif" font-size="14.00">classification [O]</text>
<polyline fill="none" stroke="black" points="1462,-100.5 1638,-100.5 "/>
<text text-anchor="middle" x="1550" y="-79.3" font-family="Times New Roman,serif" font-size="14.00">performance [O]</text>
</g>
<!-- WORC_example__config_classification_source&#45;&gt;WORC_example__classify -->
<g id="edge2" class="edge"><title>WORC_example__config_classification_source:o_output&#45;&gt;WORC_example__classify:i_config</title>
<path fill="none" stroke="blue" stroke-width="3" d="M1185,-34.5C1220.33,-34.5 1222.85,-68.9941 1252.02,-75.4618"/>
<polygon fill="blue" stroke="blue" stroke-width="3" points="1251.69,-78.946 1262,-76.5 1252.42,-71.9836 1251.69,-78.946"/>
</g>
<!-- WORC_example__config_classification_sink -->
<g id="node6" class="node"><title>WORC_example__config_classification_sink</title>
<polygon fill="#b0e2ff" stroke="black" points="1337.5,-0.5 1337.5,-46.5 1562.5,-46.5 1562.5,-0.5 1337.5,-0.5"/>
<text text-anchor="middle" x="1450" y="-31.3" font-family="Times New Roman,serif" font-size="14.00">config_classification_sink</text>
<polyline fill="none" stroke="black" points="1337.5,-23.5 1562.5,-23.5 "/>
<text text-anchor="middle" x="1405.5" y="-8.3" font-family="Times New Roman,serif" font-size="14.00">[N] input</text>
<polyline fill="none" stroke="black" points="1473.5,-0.5 1473.5,-23.5 "/>
<text text-anchor="middle" x="1518" y="-8.3" font-family="Times New Roman,serif" font-size="14.00"> </text>
</g>
<!-- WORC_example__config_classification_source&#45;&gt;WORC_example__config_classification_sink -->
<g id="edge1" class="edge"><title>WORC_example__config_classification_source:o_output&#45;&gt;WORC_example__config_classification_sink:i_input</title>
<path fill="none" stroke="black" d="M1185,-34.5C1249.31,-34.5 1266.36,-13.8618 1325.68,-11.6851"/>
<polygon fill="black" stroke="black" points="1326.06,-15.179 1336,-11.5 1325.94,-8.1801 1326.06,-15.179"/>
</g>
<!-- WORC_example__patientclass_train -->
<g id="node2" class="node"><title>WORC_example__patientclass_train</title>
<polygon fill="#caff70" stroke="black" points="951.5,-88.5 951.5,-134.5 1176.5,-134.5 1176.5,-88.5 951.5,-88.5"/>
<text text-anchor="middle" x="1064" y="-119.3" font-family="Times New Roman,serif" font-size="14.00">patientclass_train</text>
<polyline fill="none" stroke="black" points="951.5,-111.5 1176.5,-111.5 "/>
<text text-anchor="middle" x="993.5" y="-96.3" font-family="Times New Roman,serif" font-size="14.00"> </text>
<polyline fill="none" stroke="black" points="1035.5,-88.5 1035.5,-111.5 "/>
<text text-anchor="middle" x="1106" y="-96.3" font-family="Times New Roman,serif" font-size="14.00">output [M]</text>
</g>
<!-- WORC_example__patientclass_train&#45;&gt;WORC_example__classify -->
<g id="edge3" class="edge"><title>WORC_example__patientclass_train:o_output&#45;&gt;WORC_example__classify:i_patientclass_train</title>
<path fill="none" stroke="blue" stroke-width="3" d="M1178,-99.5C1211.69,-99.5 1222.58,-99.5 1251.81,-99.5"/>
<polygon fill="blue" stroke="blue" stroke-width="3" points="1252,-103 1262,-99.5 1252,-96.0001 1252,-103"/>
</g>
<!-- WORC_example__classification -->
<g id="node4" class="node"><title>WORC_example__classification</title>
<polygon fill="#b0e2ff" stroke="black" points="1674,-121.5 1674,-167.5 1890,-167.5 1890,-121.5 1674,-121.5"/>
<text text-anchor="middle" x="1782" y="-152.3" font-family="Times New Roman,serif" font-size="14.00">classification</text>
<polyline fill="none" stroke="black" points="1674,-144.5 1890,-144.5 "/>
<text text-anchor="middle" x="1740" y="-129.3" font-family="Times New Roman,serif" font-size="14.00">[O] input</text>
<polyline fill="none" stroke="black" points="1806,-121.5 1806,-144.5 "/>
<text text-anchor="middle" x="1848" y="-129.3" font-family="Times New Roman,serif" font-size="14.00"> </text>
</g>
<!-- WORC_example__classify&#45;&gt;WORC_example__classification -->
<g id="edge4" class="edge"><title>WORC_example__classify:o_classification&#45;&gt;WORC_example__classification:i_input</title>
<path fill="none" stroke="black" d="M1638,-117.5C1651.27,-117.5 1655.16,-126.293 1664.04,-130.414"/>
<polygon fill="black" stroke="black" points="1663.49,-133.877 1674,-132.5 1664.93,-127.025 1663.49,-133.877"/>
</g>
<!-- WORC_example__performance -->
<g id="node5" class="node"><title>WORC_example__performance</title>
<polygon fill="#b0e2ff" stroke="black" points="1674,-56.5 1674,-102.5 1890,-102.5 1890,-56.5 1674,-56.5"/>
<text text-anchor="middle" x="1782" y="-87.3" font-family="Times New Roman,serif" font-size="14.00">performance</text>
<polyline fill="none" stroke="black" points="1674,-79.5 1890,-79.5 "/>
<text text-anchor="middle" x="1740" y="-64.3" font-family="Times New Roman,serif" font-size="14.00">[O] input</text>
<polyline fill="none" stroke="black" points="1806,-56.5 1806,-79.5 "/>
<text text-anchor="middle" x="1848" y="-64.3" font-family="Times New Roman,serif" font-size="14.00"> </text>
</g>
<!-- WORC_example__classify&#45;&gt;WORC_example__performance -->
<g id="edge5" class="edge"><title>WORC_example__classify:o_performance&#45;&gt;WORC_example__performance:i_input</title>
<path fill="none" stroke="black" d="M1638,-82.5C1651.27,-82.5 1655.16,-73.7073 1664.04,-69.5857"/>
<polygon fill="black" stroke="black" points="1664.93,-72.9749 1674,-67.5 1663.49,-66.1234 1664.93,-72.9749"/>
</g>
<!-- WORC_example__parameters_CT_0 -->
<g id="node7" class="node"><title>WORC_example__parameters_CT_0</title>
<polygon fill="#caff70" stroke="black" points="285,-221.5 285,-267.5 507,-267.5 507,-221.5 285,-221.5"/>
<text text-anchor="middle" x="396" y="-252.3" font-family="Times New Roman,serif" font-size="14.00">parameters_CT_0</text>
<polyline fill="none" stroke="black" points="285,-244.5 507,-244.5 "/>
<text text-anchor="middle" x="327" y="-229.3" font-family="Times New Roman,serif" font-size="14.00"> </text>
<polyline fill="none" stroke="black" points="369,-221.5 369,-244.5 "/>
<text text-anchor="middle" x="438" y="-229.3" font-family="Times New Roman,serif" font-size="14.00">output [P]</text>
</g>
<!-- WORC_example__preprocessing_train_CT_0 -->
<g id="node11" class="node"><title>WORC_example__preprocessing_train_CT_0</title>
<polygon fill="#e5e5e5" stroke="black" points="568,-242 568,-311 866,-311 866,-242 568,-242"/>
<text text-anchor="middle" x="717" y="-295.8" font-family="Times New Roman,serif" font-size="14.00">preprocessing_train_CT_0</text>
<polyline fill="none" stroke="black" points="568,-288 866,-288 "/>
<text text-anchor="middle" x="649" y="-272.8" font-family="Times New Roman,serif" font-size="14.00">[Q] image</text>
<polyline fill="none" stroke="black" points="568,-265 730,-265 "/>
<text text-anchor="middle" x="649" y="-249.8" font-family="Times New Roman,serif" font-size="14.00">[P] parameters</text>
<polyline fill="none" stroke="black" points="730,-242 730,-288 "/>
<text text-anchor="middle" x="798" y="-261.3" font-family="Times New Roman,serif" font-size="14.00">image [Q]</text>
</g>
<!-- WORC_example__parameters_CT_0&#45;&gt;WORC_example__preprocessing_train_CT_0 -->
<g id="edge7" class="edge"><title>WORC_example__parameters_CT_0:o_output&#45;&gt;WORC_example__preprocessing_train_CT_0:i_parameters</title>
<path fill="none" stroke="black" d="M508,-232.5C532.5,-232.5 538.382,-248.292 557.937,-252.487"/>
<polygon fill="black" stroke="black" points="557.7,-255.981 568,-253.5 558.401,-249.016 557.7,-255.981"/>
</g>
<!-- WORC_example__calcfeatures_train_CT_0 -->
<g id="node12" class="node"><title>WORC_example__calcfeatures_train_CT_0</title>
<polygon fill="#e5e5e5" stroke="black" points="902,-153.5 902,-245.5 1226,-245.5 1226,-153.5 902,-153.5"/>
<text text-anchor="middle" x="1064" y="-230.3" font-family="Times New Roman,serif" font-size="14.00">calcfeatures_train_CT_0</text>
<polyline fill="none" stroke="black" points="902,-222.5 1226,-222.5 "/>
<text text-anchor="middle" x="990.5" y="-207.3" font-family="Times New Roman,serif" font-size="14.00">[Q] image</text>
<polyline fill="none" stroke="black" points="902,-199.5 1079,-199.5 "/>
<text text-anchor="middle" x="990.5" y="-184.3" font-family="Times New Roman,serif" font-size="14.00">[Q] segmentation</text>
<polyline fill="none" stroke="black" points="902,-176.5 1079,-176.5 "/>
<text text-anchor="middle" x="990.5" y="-161.3" font-family="Times New Roman,serif" font-size="14.00">[P] parameters</text>
<polyline fill="none" stroke="black" points="1079,-153.5 1079,-222.5 "/>
<text text-anchor="middle" x="1152.5" y="-184.3" font-family="Times New Roman,serif" font-size="14.00">features [Q]</text>
</g>
<!-- WORC_example__parameters_CT_0&#45;&gt;WORC_example__calcfeatures_train_CT_0 -->
<g id="edge9" class="edge"><title>WORC_example__parameters_CT_0:o_output&#45;&gt;WORC_example__calcfeatures_train_CT_0:i_parameters</title>
<path fill="none" stroke="black" d="M508,-232.5C522.174,-232.5 522.201,-221.741 532,-211.5 549.707,-192.994 544.949,-177.664 568,-166.5 698.471,-103.311 751.073,-161.631 891.719,-164.399"/>
<polygon fill="black" stroke="black" points="891.966,-167.902 902,-164.5 892.035,-160.902 891.966,-167.902"/>
</g>
<!-- WORC_example__images_train_CT_0 -->
<g id="node8" class="node"><title>WORC_example__images_train_CT_0</title>
<polygon fill="#caff70" stroke="black" points="0,-286.5 0,-332.5 224,-332.5 224,-286.5 0,-286.5"/>
<text text-anchor="middle" x="112" y="-317.3" font-family="Times New Roman,serif" font-size="14.00">images_train_CT_0</text>
<polyline fill="none" stroke="black" points="0,-309.5 224,-309.5 "/>
<text text-anchor="middle" x="42" y="-294.3" font-family="Times New Roman,serif" font-size="14.00"> </text>
<polyline fill="none" stroke="black" points="84,-286.5 84,-309.5 "/>
<text text-anchor="middle" x="154" y="-294.3" font-family="Times New Roman,serif" font-size="14.00">output [Q]</text>
</g>
<!-- WORC_example__convert_im_train_CT_0 -->
<g id="node10" class="node"><title>WORC_example__convert_im_train_CT_0</title>
<polygon fill="#e5e5e5" stroke="black" points="260,-286.5 260,-332.5 532,-332.5 532,-286.5 260,-286.5"/>
<text text-anchor="middle" x="396" y="-317.3" font-family="Times New Roman,serif" font-size="14.00">convert_im_train_CT_0</text>
<polyline fill="none" stroke="black" points="260,-309.5 532,-309.5 "/>
<text text-anchor="middle" x="328" y="-294.3" font-family="Times New Roman,serif" font-size="14.00">[Q] image</text>
<polyline fill="none" stroke="black" points="396,-286.5 396,-309.5 "/>
<text text-anchor="middle" x="464" y="-294.3" font-family="Times New Roman,serif" font-size="14.00">image [Q]</text>
</g>
<!-- WORC_example__images_train_CT_0&#45;&gt;WORC_example__convert_im_train_CT_0 -->
<g id="edge6" class="edge"><title>WORC_example__images_train_CT_0:o_output&#45;&gt;WORC_example__convert_im_train_CT_0:i_image</title>
<path fill="none" stroke="black" d="M224,-297.5C236,-297.5 241.25,-297.5 249.875,-297.5"/>
<polygon fill="black" stroke="black" points="250,-301 260,-297.5 250,-294 250,-301"/>
</g>
<!-- WORC_example__features_train_CT_0 -->
<g id="node9" class="node"><title>WORC_example__features_train_CT_0</title>
<polygon fill="#b0e2ff" stroke="black" points="1342,-176.5 1342,-222.5 1558,-222.5 1558,-176.5 1342,-176.5"/>
<text text-anchor="middle" x="1450" y="-207.3" font-family="Times New Roman,serif" font-size="14.00">features_train_CT_0</text>
<polyline fill="none" stroke="black" points="1342,-199.5 1558,-199.5 "/>
<text text-anchor="middle" x="1408" y="-184.3" font-family="Times New Roman,serif" font-size="14.00">[Q] input</text>
<polyline fill="none" stroke="black" points="1474,-176.5 1474,-199.5 "/>
<text text-anchor="middle" x="1516" y="-184.3" font-family="Times New Roman,serif" font-size="14.00"> </text>
</g>
<!-- WORC_example__convert_im_train_CT_0&#45;&gt;WORC_example__preprocessing_train_CT_0 -->
<g id="edge8" class="edge"><title>WORC_example__convert_im_train_CT_0:o_image&#45;&gt;WORC_example__preprocessing_train_CT_0:i_image</title>
<path fill="none" stroke="black" d="M532,-297.5C546.471,-297.5 548.998,-284.683 558.244,-279.075"/>
<polygon fill="black" stroke="black" points="559.224,-282.436 568,-276.5 557.438,-275.668 559.224,-282.436"/>
</g>
<!-- WORC_example__preprocessing_train_CT_0&#45;&gt;WORC_example__calcfeatures_train_CT_0 -->
<g id="edge10" class="edge"><title>WORC_example__preprocessing_train_CT_0:o_image&#45;&gt;WORC_example__calcfeatures_train_CT_0:i_image</title>
<path fill="none" stroke="black" d="M866,-264.5C890.249,-264.5 878.655,-226.067 892.263,-214.657"/>
<polygon fill="black" stroke="black" points="893.567,-217.913 902,-211.5 891.408,-211.255 893.567,-217.913"/>
</g>
<!-- WORC_example__calcfeatures_train_CT_0&#45;&gt;WORC_example__classify -->
<g id="edge13" class="edge"><title>WORC_example__calcfeatures_train_CT_0:o_features&#45;&gt;WORC_example__classify:i_features_train</title>
<path fill="none" stroke="blue" stroke-width="3" d="M1226,-187.5C1254.3,-187.5 1236.05,-139.371 1251.98,-126.587"/>
<polygon fill="blue" stroke="blue" stroke-width="3" points="1253.47,-129.79 1262,-123.5 1251.41,-123.1 1253.47,-129.79"/>
</g>
<!-- WORC_example__calcfeatures_train_CT_0&#45;&gt;WORC_example__features_train_CT_0 -->
<g id="edge14" class="edge"><title>WORC_example__calcfeatures_train_CT_0:o_features&#45;&gt;WORC_example__features_train_CT_0:i_input</title>
<path fill="none" stroke="black" d="M1226,-187.5C1273.52,-187.5 1287.9,-187.5 1330.76,-187.5"/>
<polygon fill="black" stroke="black" points="1331,-191 1341,-187.5 1331,-184 1331,-191"/>
</g>
<!-- WORC_example__segmentations_train_CT_0 -->
<g id="node13" class="node"><title>WORC_example__segmentations_train_CT_0</title>
<polygon fill="#caff70" stroke="black" points="280.5,-156.5 280.5,-202.5 511.5,-202.5 511.5,-156.5 280.5,-156.5"/>
<text text-anchor="middle" x="396" y="-187.3" font-family="Times New Roman,serif" font-size="14.00">segmentations_train_CT_0</text>
<polyline fill="none" stroke="black" points="280.5,-179.5 511.5,-179.5 "/>
<text text-anchor="middle" x="324" y="-164.3" font-family="Times New Roman,serif" font-size="14.00"> </text>
<polyline fill="none" stroke="black" points="367.5,-156.5 367.5,-179.5 "/>
<text text-anchor="middle" x="439.5" y="-164.3" font-family="Times New Roman,serif" font-size="14.00">output [Q]</text>
</g>
<!-- WORC_example__convert_seg_train_CT_0 -->
<g id="node14" class="node"><title>WORC_example__convert_seg_train_CT_0</title>
<polygon fill="#e5e5e5" stroke="black" points="581,-176.5 581,-222.5 853,-222.5 853,-176.5 581,-176.5"/>
<text text-anchor="middle" x="717" y="-207.3" font-family="Times New Roman,serif" font-size="14.00">convert_seg_train_CT_0</text>
<polyline fill="none" stroke="black" points="581,-199.5 853,-199.5 "/>
<text text-anchor="middle" x="649" y="-184.3" font-family="Times New Roman,serif" font-size="14.00">[Q] image</text>
<polyline fill="none" stroke="black" points="717,-176.5 717,-199.5 "/>
<text text-anchor="middle" x="785" y="-184.3" font-family="Times New Roman,serif" font-size="14.00">image [Q]</text>
</g>
<!-- WORC_example__segmentations_train_CT_0&#45;&gt;WORC_example__convert_seg_train_CT_0 -->
<g id="edge11" class="edge"><title>WORC_example__segmentations_train_CT_0:o_output&#45;&gt;WORC_example__convert_seg_train_CT_0:i_image</title>
<path fill="none" stroke="black" d="M513,-167.5C540.313,-167.5 547.365,-182.95 569.771,-186.691"/>
<polygon fill="black" stroke="black" points="569.755,-190.201 580,-187.5 570.307,-183.223 569.755,-190.201"/>
</g>
<!-- WORC_example__convert_seg_train_CT_0&#45;&gt;WORC_example__calcfeatures_train_CT_0 -->
<g id="edge12" class="edge"><title>WORC_example__convert_seg_train_CT_0:o_image&#45;&gt;WORC_example__calcfeatures_train_CT_0:i_segmentation</title>
<path fill="none" stroke="black" d="M854,-187.5C871.5,-187.5 878.233,-187.5 891.864,-187.5"/>
<polygon fill="black" stroke="black" points="892,-191 902,-187.5 892,-184 892,-191"/>
</g>
</g>
</svg>
