<?xml version="1.0" encoding="UTF-8" standalone="no"?>
<!DOCTYPE svg PUBLIC "-//W3C//DTD SVG 1.1//EN"
 "http://www.w3.org/Graphics/SVG/1.1/DTD/svg11.dtd">
<!-- Generated by graphviz version 2.38.0 (20140413.2041)
 -->
<!-- Title: structs Pages: 1 -->
<svg width="1891pt" height="340pt"
 viewBox="0.00 0.00 1891.00 340.00" xmlns="http://www.w3.org/2000/svg" xmlns:xlink="http://www.w3.org/1999/xlink">
<g id="graph0" class="graph" transform="scale(1 1) rotate(0) translate(4 336)">
<title>structs</title>
<polygon fill="white" stroke="none" points="-4,4 -4,-336 1887,-336 1887,4 -4,4"/>
<!-- WORC_Tutorial__config_classification_source -->
<g id="node1" class="node"><title>WORC_Tutorial__config_classification_source</title>
<polygon fill="#caff70" stroke="black" points="945.5,-23.5 945.5,-69.5 1180.5,-69.5 1180.5,-23.5 945.5,-23.5"/>
<text text-anchor="middle" x="1063" y="-54.3" font-family="Times,serif" font-size="14.00">config_classification_source</text>
<polyline fill="none" stroke="black" points="945.5,-46.5 1180.5,-46.5 "/>
<text text-anchor="middle" x="990.5" y="-31.3" font-family="Times,serif" font-size="14.00"> </text>
<polyline fill="none" stroke="black" points="1035.5,-23.5 1035.5,-46.5 "/>
<text text-anchor="middle" x="1108" y="-31.3" font-family="Times,serif" font-size="14.00">output [N]</text>
</g>
<!-- WORC_Tutorial__classify -->
<g id="node3" class="node"><title>WORC_Tutorial__classify</title>
<polygon fill="#e5e5e5" stroke="black" points="1260,-65.5 1260,-157.5 1632,-157.5 1632,-65.5 1260,-65.5"/>
<text text-anchor="middle" x="1446" y="-142.3" font-family="Times,serif" font-size="14.00">classify</text>
<polyline fill="none" stroke="black" points="1260,-134.5 1632,-134.5 "/>
<text text-anchor="middle" x="1359" y="-119.3" font-family="Times,serif" font-size="14.00">[O] features_train</text>
<polyline fill="none" stroke="black" points="1260,-111.5 1458,-111.5 "/>
<text text-anchor="middle" x="1359" y="-96.3" font-family="Times,serif" font-size="14.00">[O] patientclass_train</text>
<polyline fill="none" stroke="black" points="1260,-88.5 1458,-88.5 "/>
<text text-anchor="middle" x="1359" y="-73.3" font-family="Times,serif" font-size="14.00">[O] config</text>
<polyline fill="none" stroke="black" points="1458,-65.5 1458,-134.5 "/>
<text text-anchor="middle" x="1545" y="-113.8" font-family="Times,serif" font-size="14.00">classification [O]</text>
<polyline fill="none" stroke="black" points="1458,-100.5 1632,-100.5 "/>
<text text-anchor="middle" x="1545" y="-79.3" font-family="Times,serif" font-size="14.00">performance [O]</text>
</g>
<!-- WORC_Tutorial__config_classification_source&#45;&gt;WORC_Tutorial__classify -->
<g id="edge2" class="edge"><title>WORC_Tutorial__config_classification_source:o_output&#45;&gt;WORC_Tutorial__classify:i_config</title>
<path fill="none" stroke="blue" stroke-width="3" d="M1182,-34.5C1217.68,-34.5 1220.41,-68.9941 1249.92,-75.4618"/>
<polygon fill="blue" stroke="blue" stroke-width="3" points="1249.69,-78.9571 1260,-76.5 1250.41,-71.994 1249.69,-78.9571"/>
</g>
<!-- WORC_Tutorial__config_classification_sink -->
<g id="node6" class="node"><title>WORC_Tutorial__config_classification_sink</title>
<polygon fill="#b0e2ff" stroke="black" points="1335,-0.5 1335,-46.5 1557,-46.5 1557,-0.5 1335,-0.5"/>
<text text-anchor="middle" x="1446" y="-31.3" font-family="Times,serif" font-size="14.00">config_classification_sink</text>
<polyline fill="none" stroke="black" points="1335,-23.5 1557,-23.5 "/>
<text text-anchor="middle" x="1402" y="-8.3" font-family="Times,serif" font-size="14.00">[N] input</text>
<polyline fill="none" stroke="black" points="1469,-0.5 1469,-23.5 "/>
<text text-anchor="middle" x="1513" y="-8.3" font-family="Times,serif" font-size="14.00"> </text>
</g>
<!-- WORC_Tutorial__config_classification_source&#45;&gt;WORC_Tutorial__config_classification_sink -->
<g id="edge1" class="edge"><title>WORC_Tutorial__config_classification_source:o_output&#45;&gt;WORC_Tutorial__config_classification_sink:i_input</title>
<path fill="none" stroke="black" d="M1182,-34.5C1246.85,-34.5 1263.98,-13.7766 1323.99,-11.6719"/>
<polygon fill="black" stroke="black" points="1324.06,-15.1712 1334,-11.5 1323.94,-8.17228 1324.06,-15.1712"/>
</g>
<!-- WORC_Tutorial__patientclass_train -->
<g id="node2" class="node"><title>WORC_Tutorial__patientclass_train</title>
<polygon fill="#caff70" stroke="black" points="950.5,-88.5 950.5,-134.5 1175.5,-134.5 1175.5,-88.5 950.5,-88.5"/>
<text text-anchor="middle" x="1063" y="-119.3" font-family="Times,serif" font-size="14.00">patientclass_train</text>
<polyline fill="none" stroke="black" points="950.5,-111.5 1175.5,-111.5 "/>
<text text-anchor="middle" x="992.5" y="-96.3" font-family="Times,serif" font-size="14.00"> </text>
<polyline fill="none" stroke="black" points="1034.5,-88.5 1034.5,-111.5 "/>
<text text-anchor="middle" x="1105" y="-96.3" font-family="Times,serif" font-size="14.00">output [M]</text>
</g>
<!-- WORC_Tutorial__patientclass_train&#45;&gt;WORC_Tutorial__classify -->
<g id="edge3" class="edge"><title>WORC_Tutorial__patientclass_train:o_output&#45;&gt;WORC_Tutorial__classify:i_patientclass_train</title>
<path fill="none" stroke="blue" stroke-width="3" d="M1177,-99.5C1210.29,-99.5 1221.05,-99.5 1249.93,-99.5"/>
<polygon fill="blue" stroke="blue" stroke-width="3" points="1250,-103 1260,-99.5 1250,-96.0001 1250,-103"/>
</g>
<!-- WORC_Tutorial__classification -->
<g id="node4" class="node"><title>WORC_Tutorial__classification</title>
<polygon fill="#b0e2ff" stroke="black" points="1668,-121.5 1668,-167.5 1883,-167.5 1883,-121.5 1668,-121.5"/>
<text text-anchor="middle" x="1775.5" y="-152.3" font-family="Times,serif" font-size="14.00">classification</text>
<polyline fill="none" stroke="black" points="1668,-144.5 1883,-144.5 "/>
<text text-anchor="middle" x="1733.5" y="-129.3" font-family="Times,serif" font-size="14.00">[O] input</text>
<polyline fill="none" stroke="black" points="1799,-121.5 1799,-144.5 "/>
<text text-anchor="middle" x="1841" y="-129.3" font-family="Times,serif" font-size="14.00"> </text>
</g>
<!-- WORC_Tutorial__classify&#45;&gt;WORC_Tutorial__classification -->
<g id="edge4" class="edge"><title>WORC_Tutorial__classify:o_classification&#45;&gt;WORC_Tutorial__classification:i_input</title>
<path fill="none" stroke="black" d="M1632,-117.5C1645.27,-117.5 1649.16,-126.293 1658.04,-130.414"/>
<polygon fill="black" stroke="black" points="1657.49,-133.877 1668,-132.5 1658.93,-127.025 1657.49,-133.877"/>
</g>
<!-- WORC_Tutorial__performance -->
<g id="node5" class="node"><title>WORC_Tutorial__performance</title>
<polygon fill="#b0e2ff" stroke="black" points="1668,-56.5 1668,-102.5 1883,-102.5 1883,-56.5 1668,-56.5"/>
<text text-anchor="middle" x="1775.5" y="-87.3" font-family="Times,serif" font-size="14.00">performance</text>
<polyline fill="none" stroke="black" points="1668,-79.5 1883,-79.5 "/>
<text text-anchor="middle" x="1733.5" y="-64.3" font-family="Times,serif" font-size="14.00">[O] input</text>
<polyline fill="none" stroke="black" points="1799,-56.5 1799,-79.5 "/>
<text text-anchor="middle" x="1841" y="-64.3" font-family="Times,serif" font-size="14.00"> </text>
</g>
<!-- WORC_Tutorial__classify&#45;&gt;WORC_Tutorial__performance -->
<g id="edge5" class="edge"><title>WORC_Tutorial__classify:o_performance&#45;&gt;WORC_Tutorial__performance:i_input</title>
<path fill="none" stroke="black" d="M1632,-82.5C1645.27,-82.5 1649.16,-73.7073 1658.04,-69.5857"/>
<polygon fill="black" stroke="black" points="1658.93,-72.9749 1668,-67.5 1657.49,-66.1234 1658.93,-72.9749"/>
</g>
<!-- WORC_Tutorial__parameters_CT_0 -->
<g id="node7" class="node"><title>WORC_Tutorial__parameters_CT_0</title>
<polygon fill="#caff70" stroke="black" points="285.5,-220.5 285.5,-266.5 504.5,-266.5 504.5,-220.5 285.5,-220.5"/>
<text text-anchor="middle" x="395" y="-251.3" font-family="Times,serif" font-size="14.00">parameters_CT_0</text>
<polyline fill="none" stroke="black" points="285.5,-243.5 504.5,-243.5 "/>
<text text-anchor="middle" x="327.5" y="-228.3" font-family="Times,serif" font-size="14.00"> </text>
<polyline fill="none" stroke="black" points="369.5,-220.5 369.5,-243.5 "/>
<text text-anchor="middle" x="437" y="-228.3" font-family="Times,serif" font-size="14.00">output [P]</text>
</g>
<!-- WORC_Tutorial__preprocessing_train_CT_0 -->
<g id="node11" class="node"><title>WORC_Tutorial__preprocessing_train_CT_0</title>
<polygon fill="#e5e5e5" stroke="black" points="568,-241 568,-310 866,-310 866,-241 568,-241"/>
<text text-anchor="middle" x="717" y="-294.8" font-family="Times,serif" font-size="14.00">preprocessing_train_CT_0</text>
<polyline fill="none" stroke="black" points="568,-287 866,-287 "/>
<text text-anchor="middle" x="648.5" y="-271.8" font-family="Times,serif" font-size="14.00">[Q] image</text>
<polyline fill="none" stroke="black" points="568,-264 729,-264 "/>
<text text-anchor="middle" x="648.5" y="-248.8" font-family="Times,serif" font-size="14.00">[P] parameters</text>
<polyline fill="none" stroke="black" points="729,-241 729,-287 "/>
<text text-anchor="middle" x="797.5" y="-260.3" font-family="Times,serif" font-size="14.00">image [Q]</text>
</g>
<!-- WORC_Tutorial__parameters_CT_0&#45;&gt;WORC_Tutorial__preprocessing_train_CT_0 -->
<g id="edge7" class="edge"><title>WORC_Tutorial__parameters_CT_0:o_output&#45;&gt;WORC_Tutorial__preprocessing_train_CT_0:i_parameters</title>
<path fill="none" stroke="black" d="M506,-231.5C531.343,-231.5 537.503,-247.435 557.901,-251.543"/>
<polygon fill="black" stroke="black" points="557.714,-255.041 568,-252.5 558.375,-248.072 557.714,-255.041"/>
</g>
<!-- WORC_Tutorial__calcfeatures_train_CT_0 -->
<g id="node12" class="node"><title>WORC_Tutorial__calcfeatures_train_CT_0</title>
<polygon fill="#e5e5e5" stroke="black" points="902,-153.5 902,-245.5 1224,-245.5 1224,-153.5 902,-153.5"/>
<text text-anchor="middle" x="1063" y="-230.3" font-family="Times,serif" font-size="14.00">calcfeatures_train_CT_0</text>
<polyline fill="none" stroke="black" points="902,-222.5 1224,-222.5 "/>
<text text-anchor="middle" x="990" y="-207.3" font-family="Times,serif" font-size="14.00">[Q] image</text>
<polyline fill="none" stroke="black" points="902,-199.5 1078,-199.5 "/>
<text text-anchor="middle" x="990" y="-184.3" font-family="Times,serif" font-size="14.00">[Q] segmentation</text>
<polyline fill="none" stroke="black" points="902,-176.5 1078,-176.5 "/>
<text text-anchor="middle" x="990" y="-161.3" font-family="Times,serif" font-size="14.00">[P] parameters</text>
<polyline fill="none" stroke="black" points="1078,-153.5 1078,-222.5 "/>
<text text-anchor="middle" x="1151" y="-184.3" font-family="Times,serif" font-size="14.00">features [Q]</text>
</g>
<!-- WORC_Tutorial__parameters_CT_0&#45;&gt;WORC_Tutorial__calcfeatures_train_CT_0 -->
<g id="edge9" class="edge"><title>WORC_Tutorial__parameters_CT_0:o_output&#45;&gt;WORC_Tutorial__calcfeatures_train_CT_0:i_parameters</title>
<path fill="none" stroke="black" d="M506,-231.5C520.854,-231.5 521.464,-220.97 532,-210.5 549.923,-192.69 545.2,-177.388 568,-166.5 698.817,-104.028 751.089,-161.664 891.72,-164.4"/>
<polygon fill="black" stroke="black" points="891.966,-167.903 902,-164.5 892.034,-160.903 891.966,-167.903"/>
</g>
<!-- WORC_Tutorial__images_train_CT_0 -->
<g id="node8" class="node"><title>WORC_Tutorial__images_train_CT_0</title>
<polygon fill="#caff70" stroke="black" points="0,-285.5 0,-331.5 222,-331.5 222,-285.5 0,-285.5"/>
<text text-anchor="middle" x="111" y="-316.3" font-family="Times,serif" font-size="14.00">images_train_CT_0</text>
<polyline fill="none" stroke="black" points="0,-308.5 222,-308.5 "/>
<text text-anchor="middle" x="42" y="-293.3" font-family="Times,serif" font-size="14.00"> </text>
<polyline fill="none" stroke="black" points="84,-285.5 84,-308.5 "/>
<text text-anchor="middle" x="153" y="-293.3" font-family="Times,serif" font-size="14.00">output [Q]</text>
</g>
<!-- WORC_Tutorial__convert_im_train_CT_0 -->
<g id="node10" class="node"><title>WORC_Tutorial__convert_im_train_CT_0</title>
<polygon fill="#e5e5e5" stroke="black" points="258,-285.5 258,-331.5 532,-331.5 532,-285.5 258,-285.5"/>
<text text-anchor="middle" x="395" y="-316.3" font-family="Times,serif" font-size="14.00">convert_im_train_CT_0</text>
<polyline fill="none" stroke="black" points="258,-308.5 532,-308.5 "/>
<text text-anchor="middle" x="326.5" y="-293.3" font-family="Times,serif" font-size="14.00">[Q] image</text>
<polyline fill="none" stroke="black" points="395,-285.5 395,-308.5 "/>
<text text-anchor="middle" x="463.5" y="-293.3" font-family="Times,serif" font-size="14.00">image [Q]</text>
</g>
<!-- WORC_Tutorial__images_train_CT_0&#45;&gt;WORC_Tutorial__convert_im_train_CT_0 -->
<g id="edge6" class="edge"><title>WORC_Tutorial__images_train_CT_0:o_output&#45;&gt;WORC_Tutorial__convert_im_train_CT_0:i_image</title>
<path fill="none" stroke="black" d="M222,-296.5C234,-296.5 239.25,-296.5 247.875,-296.5"/>
<polygon fill="black" stroke="black" points="248,-300 258,-296.5 248,-293 248,-300"/>
</g>
<!-- WORC_Tutorial__features_train_CT_0 -->
<g id="node9" class="node"><title>WORC_Tutorial__features_train_CT_0</title>
<polygon fill="#b0e2ff" stroke="black" points="1338.5,-176.5 1338.5,-222.5 1553.5,-222.5 1553.5,-176.5 1338.5,-176.5"/>
<text text-anchor="middle" x="1446" y="-207.3" font-family="Times,serif" font-size="14.00">features_train_CT_0</text>
<polyline fill="none" stroke="black" points="1338.5,-199.5 1553.5,-199.5 "/>
<text text-anchor="middle" x="1404" y="-184.3" font-family="Times,serif" font-size="14.00">[Q] input</text>
<polyline fill="none" stroke="black" points="1469.5,-176.5 1469.5,-199.5 "/>
<text text-anchor="middle" x="1511.5" y="-184.3" font-family="Times,serif" font-size="14.00"> </text>
</g>
<!-- WORC_Tutorial__convert_im_train_CT_0&#45;&gt;WORC_Tutorial__preprocessing_train_CT_0 -->
<g id="edge8" class="edge"><title>WORC_Tutorial__convert_im_train_CT_0:o_image&#45;&gt;WORC_Tutorial__preprocessing_train_CT_0:i_image</title>
<path fill="none" stroke="black" d="M532,-296.5C546.471,-296.5 548.998,-283.683 558.244,-278.075"/>
<polygon fill="black" stroke="black" points="559.224,-281.436 568,-275.5 557.438,-274.668 559.224,-281.436"/>
</g>
<!-- WORC_Tutorial__preprocessing_train_CT_0&#45;&gt;WORC_Tutorial__calcfeatures_train_CT_0 -->
<g id="edge10" class="edge"><title>WORC_Tutorial__preprocessing_train_CT_0:o_image&#45;&gt;WORC_Tutorial__calcfeatures_train_CT_0:i_image</title>
<path fill="none" stroke="black" d="M866,-263.5C889.937,-263.5 878.828,-225.792 892.361,-214.597"/>
<polygon fill="black" stroke="black" points="893.55,-217.891 902,-211.5 891.409,-211.227 893.55,-217.891"/>
</g>
<!-- WORC_Tutorial__calcfeatures_train_CT_0&#45;&gt;WORC_Tutorial__classify -->
<g id="edge13" class="edge"><title>WORC_Tutorial__calcfeatures_train_CT_0:o_features&#45;&gt;WORC_Tutorial__classify:i_features_train</title>
<path fill="none" stroke="blue" stroke-width="3" d="M1224,-187.5C1252.3,-187.5 1234.05,-139.371 1249.98,-126.587"/>
<polygon fill="blue" stroke="blue" stroke-width="3" points="1251.47,-129.79 1260,-123.5 1249.41,-123.1 1251.47,-129.79"/>
</g>
<!-- WORC_Tutorial__calcfeatures_train_CT_0&#45;&gt;WORC_Tutorial__features_train_CT_0 -->
<g id="edge14" class="edge"><title>WORC_Tutorial__calcfeatures_train_CT_0:o_features&#45;&gt;WORC_Tutorial__features_train_CT_0:i_input</title>
<path fill="none" stroke="black" d="M1224,-187.5C1270.69,-187.5 1284.83,-187.5 1326.94,-187.5"/>
<polygon fill="black" stroke="black" points="1327,-191 1337,-187.5 1327,-184 1327,-191"/>
</g>
<!-- WORC_Tutorial__segmentations_train_CT_0 -->
<g id="node13" class="node"><title>WORC_Tutorial__segmentations_train_CT_0</title>
<polygon fill="#caff70" stroke="black" points="281,-155.5 281,-201.5 509,-201.5 509,-155.5 281,-155.5"/>
<text text-anchor="middle" x="395" y="-186.3" font-family="Times,serif" font-size="14.00">segmentations_train_CT_0</text>
<polyline fill="none" stroke="black" points="281,-178.5 509,-178.5 "/>
<text text-anchor="middle" x="324.5" y="-163.3" font-family="Times,serif" font-size="14.00"> </text>
<polyline fill="none" stroke="black" points="368,-155.5 368,-178.5 "/>
<text text-anchor="middle" x="438.5" y="-163.3" font-family="Times,serif" font-size="14.00">output [Q]</text>
</g>
<!-- WORC_Tutorial__convert_seg_train_CT_0 -->
<g id="node14" class="node"><title>WORC_Tutorial__convert_seg_train_CT_0</title>
<polygon fill="#e5e5e5" stroke="black" points="580,-176.5 580,-222.5 854,-222.5 854,-176.5 580,-176.5"/>
<text text-anchor="middle" x="717" y="-207.3" font-family="Times,serif" font-size="14.00">convert_seg_train_CT_0</text>
<polyline fill="none" stroke="black" points="580,-199.5 854,-199.5 "/>
<text text-anchor="middle" x="648.5" y="-184.3" font-family="Times,serif" font-size="14.00">[Q] image</text>
<polyline fill="none" stroke="black" points="717,-176.5 717,-199.5 "/>
<text text-anchor="middle" x="785.5" y="-184.3" font-family="Times,serif" font-size="14.00">image [Q]</text>
</g>
<!-- WORC_Tutorial__segmentations_train_CT_0&#45;&gt;WORC_Tutorial__convert_seg_train_CT_0 -->
<g id="edge11" class="edge"><title>WORC_Tutorial__segmentations_train_CT_0:o_output&#45;&gt;WORC_Tutorial__convert_seg_train_CT_0:i_image</title>
<path fill="none" stroke="black" d="M510,-166.5C538.299,-166.5 545.426,-182.867 568.762,-186.702"/>
<polygon fill="black" stroke="black" points="568.758,-190.213 579,-187.5 569.302,-183.234 568.758,-190.213"/>
</g>
<!-- WORC_Tutorial__convert_seg_train_CT_0&#45;&gt;WORC_Tutorial__calcfeatures_train_CT_0 -->
<g id="edge12" class="edge"><title>WORC_Tutorial__convert_seg_train_CT_0:o_image&#45;&gt;WORC_Tutorial__calcfeatures_train_CT_0:i_segmentation</title>
<path fill="none" stroke="black" d="M855,-187.5C871.972,-187.5 878.602,-187.5 891.696,-187.5"/>
<polygon fill="black" stroke="black" points="892,-191 902,-187.5 892,-184 892,-191"/>
</g>
</g>
</svg>
