<?xml version="1.0" encoding="UTF-8" standalone="no"?>
<!DOCTYPE svg PUBLIC "-//W3C//DTD SVG 1.1//EN"
 "http://www.w3.org/Graphics/SVG/1.1/DTD/svg11.dtd">
<!-- Generated by graphviz version 2.40.1 (20161225.0304)
 -->
<!-- Title: structs Pages: 1 -->
<svg width="1311pt" height="385pt"
 viewBox="0.00 0.00 1311.00 385.00" xmlns="http://www.w3.org/2000/svg" xmlns:xlink="http://www.w3.org/1999/xlink">
<g id="graph0" class="graph" transform="scale(1 1) rotate(0) translate(4 381)">
<title>structs</title>
<polygon fill="#ffffff" stroke="transparent" points="-4,4 -4,-381 1307,-381 1307,4 -4,4"/>
<!-- WORC_Tutorial__classification -->
<g id="node1" class="node">
<title>WORC_Tutorial__classification</title>
<polygon fill="#b0e2ff" stroke="#000000" points="1203,-104.5 1203,-156.5 1303,-156.5 1303,-104.5 1203,-104.5"/>
<text text-anchor="middle" x="1253" y="-139.7" font-family="Times,serif" font-size="16.00" fill="#000000">classification</text>
<polyline fill="none" stroke="#000000" points="1203,-130.5 1303,-130.5 "/>
<text text-anchor="middle" x="1242" y="-113.7" font-family="Times,serif" font-size="16.00" fill="#000000">[N] input</text>
<polyline fill="none" stroke="#000000" points="1281,-104.5 1281,-130.5 "/>
<text text-anchor="middle" x="1292" y="-113.7" font-family="Times,serif" font-size="16.00" fill="#000000"> </text>
</g>
<!-- WORC_Tutorial__patientclass_train -->
<g id="node2" class="node">
<title>WORC_Tutorial__patientclass_train</title>
<polygon fill="#caff70" stroke="#000000" points="679,-78.5 679,-130.5 807,-130.5 807,-78.5 679,-78.5"/>
<text text-anchor="middle" x="743" y="-113.7" font-family="Times,serif" font-size="16.00" fill="#000000">patientclass_train</text>
<polyline fill="none" stroke="#000000" points="679,-104.5 807,-104.5 "/>
<text text-anchor="middle" x="694" y="-87.7" font-family="Times,serif" font-size="16.00" fill="#000000"> </text>
<polyline fill="none" stroke="#000000" points="709,-78.5 709,-104.5 "/>
<text text-anchor="middle" x="758" y="-87.7" font-family="Times,serif" font-size="16.00" fill="#000000">output [M]</text>
</g>
<!-- WORC_Tutorial__classify -->
<g id="node13" class="node">
<title>WORC_Tutorial__classify</title>
<polygon fill="#e5e5e5" stroke="#000000" points="889,-.5 889,-182.5 1167,-182.5 1167,-.5 889,-.5"/>
<text text-anchor="middle" x="1028" y="-165.7" font-family="Times,serif" font-size="16.00" fill="#000000">classify</text>
<polyline fill="none" stroke="#000000" points="889,-156.5 1167,-156.5 "/>
<text text-anchor="middle" x="965.5" y="-139.7" font-family="Times,serif" font-size="16.00" fill="#000000">[N] features_train</text>
<polyline fill="none" stroke="#000000" points="889,-130.5 1042,-130.5 "/>
<text text-anchor="middle" x="965.5" y="-113.7" font-family="Times,serif" font-size="16.00" fill="#000000">[] features_test</text>
<polyline fill="none" stroke="#000000" points="889,-104.5 1042,-104.5 "/>
<text text-anchor="middle" x="965.5" y="-87.7" font-family="Times,serif" font-size="16.00" fill="#000000">[N] patientclass_train</text>
<polyline fill="none" stroke="#000000" points="889,-78.5 1042,-78.5 "/>
<text text-anchor="middle" x="965.5" y="-61.7" font-family="Times,serif" font-size="16.00" fill="#000000">[] patientclass_test</text>
<polyline fill="none" stroke="#000000" points="889,-52.5 1042,-52.5 "/>
<text text-anchor="middle" x="965.5" y="-35.7" font-family="Times,serif" font-size="16.00" fill="#000000">[N] config</text>
<polyline fill="none" stroke="#000000" points="889,-26.5 1042,-26.5 "/>
<text text-anchor="middle" x="965.5" y="-9.7" font-family="Times,serif" font-size="16.00" fill="#000000">[] fixedsplits</text>
<polyline fill="none" stroke="#000000" points="1042,-.5 1042,-156.5 "/>
<text text-anchor="middle" x="1104.5" y="-113.7" font-family="Times,serif" font-size="16.00" fill="#000000">classification [N]</text>
<polyline fill="none" stroke="#000000" points="1042,-78.5 1167,-78.5 "/>
<text text-anchor="middle" x="1104.5" y="-35.7" font-family="Times,serif" font-size="16.00" fill="#000000">performance [N]</text>
</g>
<!-- WORC_Tutorial__patientclass_train&#45;&gt;WORC_Tutorial__classify -->
<g id="edge8" class="edge">
<title>WORC_Tutorial__patientclass_train:o_output&#45;&gt;WORC_Tutorial__classify:i_patientclass_train</title>
<path fill="none" stroke="#0000ff" stroke-width="3" d="M807,-91.5C839.7431,-91.5 850.4229,-91.5 878.6844,-91.5"/>
<polygon fill="#0000ff" stroke="#0000ff" stroke-width="3" points="879,-95.0001 889,-91.5 879,-88.0001 879,-95.0001"/>
</g>
<!-- WORC_Tutorial__segmentations_train_CT_0 -->
<g id="node3" class="node">
<title>WORC_Tutorial__segmentations_train_CT_0</title>
<polygon fill="#caff70" stroke="#000000" points="180,-204.5 180,-256.5 371,-256.5 371,-204.5 180,-204.5"/>
<text text-anchor="middle" x="275.5" y="-239.7" font-family="Times,serif" font-size="16.00" fill="#000000">segmentations_train_CT_0</text>
<polyline fill="none" stroke="#000000" points="180,-230.5 371,-230.5 "/>
<text text-anchor="middle" x="211.5" y="-213.7" font-family="Times,serif" font-size="16.00" fill="#000000"> </text>
<polyline fill="none" stroke="#000000" points="243,-204.5 243,-230.5 "/>
<text text-anchor="middle" x="307" y="-213.7" font-family="Times,serif" font-size="16.00" fill="#000000">output [O]</text>
</g>
<!-- WORC_Tutorial__convert_seg_train_CT_0 -->
<g id="node8" class="node">
<title>WORC_Tutorial__convert_seg_train_CT_0</title>
<polygon fill="#e5e5e5" stroke="#000000" points="414,-175.5 414,-227.5 590,-227.5 590,-175.5 414,-175.5"/>
<text text-anchor="middle" x="502" y="-210.7" font-family="Times,serif" font-size="16.00" fill="#000000">convert_seg_train_CT_0</text>
<polyline fill="none" stroke="#000000" points="414,-201.5 590,-201.5 "/>
<text text-anchor="middle" x="458" y="-184.7" font-family="Times,serif" font-size="16.00" fill="#000000">[O] image</text>
<polyline fill="none" stroke="#000000" points="502,-175.5 502,-201.5 "/>
<text text-anchor="middle" x="546" y="-184.7" font-family="Times,serif" font-size="16.00" fill="#000000">image [O]</text>
</g>
<!-- WORC_Tutorial__segmentations_train_CT_0&#45;&gt;WORC_Tutorial__convert_seg_train_CT_0 -->
<g id="edge4" class="edge">
<title>WORC_Tutorial__segmentations_train_CT_0:o_output&#45;&gt;WORC_Tutorial__convert_seg_train_CT_0:i_image</title>
<path fill="none" stroke="#000000" d="M371,-217.5C390.0893,-217.5 391.2426,-197.6121 404.1665,-190.7756"/>
<polygon fill="#000000" stroke="#000000" points="405.0466,-194.1645 414,-188.5 403.4683,-187.3447 405.0466,-194.1645"/>
</g>
<!-- WORC_Tutorial__features_train_CT_0 -->
<g id="node4" class="node">
<title>WORC_Tutorial__features_train_CT_0</title>
<polygon fill="#b0e2ff" stroke="#000000" points="953.5,-201.5 953.5,-253.5 1102.5,-253.5 1102.5,-201.5 953.5,-201.5"/>
<text text-anchor="middle" x="1028" y="-236.7" font-family="Times,serif" font-size="16.00" fill="#000000">features_train_CT_0</text>
<polyline fill="none" stroke="#000000" points="953.5,-227.5 1102.5,-227.5 "/>
<text text-anchor="middle" x="1004.5" y="-210.7" font-family="Times,serif" font-size="16.00" fill="#000000">[O] input</text>
<polyline fill="none" stroke="#000000" points="1055.5,-201.5 1055.5,-227.5 "/>
<text text-anchor="middle" x="1079" y="-210.7" font-family="Times,serif" font-size="16.00" fill="#000000"> </text>
</g>
<!-- WORC_Tutorial__calcfeatures_train_CT_0 -->
<g id="node5" class="node">
<title>WORC_Tutorial__calcfeatures_train_CT_0</title>
<polygon fill="#e5e5e5" stroke="#000000" points="633,-149.5 633,-305.5 853,-305.5 853,-149.5 633,-149.5"/>
<text text-anchor="middle" x="743" y="-288.7" font-family="Times,serif" font-size="16.00" fill="#000000">calcfeatures_train_CT_0</text>
<polyline fill="none" stroke="#000000" points="633,-279.5 853,-279.5 "/>
<text text-anchor="middle" x="697" y="-262.7" font-family="Times,serif" font-size="16.00" fill="#000000">[O] image</text>
<polyline fill="none" stroke="#000000" points="633,-253.5 761,-253.5 "/>
<text text-anchor="middle" x="697" y="-236.7" font-family="Times,serif" font-size="16.00" fill="#000000">[] metadata</text>
<polyline fill="none" stroke="#000000" points="633,-227.5 761,-227.5 "/>
<text text-anchor="middle" x="697" y="-210.7" font-family="Times,serif" font-size="16.00" fill="#000000">[] semantics</text>
<polyline fill="none" stroke="#000000" points="633,-201.5 761,-201.5 "/>
<text text-anchor="middle" x="697" y="-184.7" font-family="Times,serif" font-size="16.00" fill="#000000">[O] segmentation</text>
<polyline fill="none" stroke="#000000" points="633,-175.5 761,-175.5 "/>
<text text-anchor="middle" x="697" y="-158.7" font-family="Times,serif" font-size="16.00" fill="#000000">[P] parameters</text>
<polyline fill="none" stroke="#000000" points="761,-149.5 761,-279.5 "/>
<text text-anchor="middle" x="807" y="-210.7" font-family="Times,serif" font-size="16.00" fill="#000000">features [O]</text>
</g>
<!-- WORC_Tutorial__calcfeatures_train_CT_0&#45;&gt;WORC_Tutorial__features_train_CT_0 -->
<g id="edge1" class="edge">
<title>WORC_Tutorial__calcfeatures_train_CT_0:o_features&#45;&gt;WORC_Tutorial__features_train_CT_0:i_input</title>
<path fill="none" stroke="#000000" d="M853,-214.5C893.7986,-214.5 906.5083,-214.5 942.6986,-214.5"/>
<polygon fill="#000000" stroke="#000000" points="943,-218.0001 953,-214.5 943,-211.0001 943,-218.0001"/>
</g>
<!-- WORC_Tutorial__calcfeatures_train_CT_0&#45;&gt;WORC_Tutorial__classify -->
<g id="edge2" class="edge">
<title>WORC_Tutorial__calcfeatures_train_CT_0:o_features&#45;&gt;WORC_Tutorial__classify:i_features_train</title>
<path fill="none" stroke="#0000ff" stroke-width="3" d="M853,-214.5C884.234,-214.5 860.8036,-159.1656 879.2256,-146.1966"/>
<polygon fill="#0000ff" stroke="#0000ff" stroke-width="3" points="880.291,-149.5335 889,-143.5 878.4293,-142.7856 880.291,-149.5335"/>
</g>
<!-- WORC_Tutorial__images_train_CT_0 -->
<g id="node6" class="node">
<title>WORC_Tutorial__images_train_CT_0</title>
<polygon fill="#caff70" stroke="#000000" points="0,-324.5 0,-376.5 144,-376.5 144,-324.5 0,-324.5"/>
<text text-anchor="middle" x="72" y="-359.7" font-family="Times,serif" font-size="16.00" fill="#000000">images_train_CT_0</text>
<polyline fill="none" stroke="#000000" points="0,-350.5 144,-350.5 "/>
<text text-anchor="middle" x="20" y="-333.7" font-family="Times,serif" font-size="16.00" fill="#000000"> </text>
<polyline fill="none" stroke="#000000" points="40,-324.5 40,-350.5 "/>
<text text-anchor="middle" x="92" y="-333.7" font-family="Times,serif" font-size="16.00" fill="#000000">output [O]</text>
</g>
<!-- WORC_Tutorial__convert_im_train_CT_0 -->
<g id="node12" class="node">
<title>WORC_Tutorial__convert_im_train_CT_0</title>
<polygon fill="#e5e5e5" stroke="#000000" points="189,-324.5 189,-376.5 362,-376.5 362,-324.5 189,-324.5"/>
<text text-anchor="middle" x="275.5" y="-359.7" font-family="Times,serif" font-size="16.00" fill="#000000">convert_im_train_CT_0</text>
<polyline fill="none" stroke="#000000" points="189,-350.5 362,-350.5 "/>
<text text-anchor="middle" x="232" y="-333.7" font-family="Times,serif" font-size="16.00" fill="#000000">[O] image</text>
<polyline fill="none" stroke="#000000" points="275,-324.5 275,-350.5 "/>
<text text-anchor="middle" x="318.5" y="-333.7" font-family="Times,serif" font-size="16.00" fill="#000000">image [O]</text>
</g>
<!-- WORC_Tutorial__images_train_CT_0&#45;&gt;WORC_Tutorial__convert_im_train_CT_0 -->
<g id="edge13" class="edge">
<title>WORC_Tutorial__images_train_CT_0:o_output&#45;&gt;WORC_Tutorial__convert_im_train_CT_0:i_image</title>
<path fill="none" stroke="#000000" d="M144,-337.5C159.9149,-337.5 166.225,-337.5 178.388,-337.5"/>
<polygon fill="#000000" stroke="#000000" points="178.5,-341.0001 188.5,-337.5 178.5,-334.0001 178.5,-341.0001"/>
</g>
<!-- WORC_Tutorial__parameters_CT_0 -->
<g id="node7" class="node">
<title>WORC_Tutorial__parameters_CT_0</title>
<polygon fill="#caff70" stroke="#000000" points="210,-133.5 210,-185.5 341,-185.5 341,-133.5 210,-133.5"/>
<text text-anchor="middle" x="275.5" y="-168.7" font-family="Times,serif" font-size="16.00" fill="#000000">parameters_CT_0</text>
<polyline fill="none" stroke="#000000" points="210,-159.5 341,-159.5 "/>
<text text-anchor="middle" x="227" y="-142.7" font-family="Times,serif" font-size="16.00" fill="#000000"> </text>
<polyline fill="none" stroke="#000000" points="244,-133.5 244,-159.5 "/>
<text text-anchor="middle" x="292.5" y="-142.7" font-family="Times,serif" font-size="16.00" fill="#000000">output [P]</text>
</g>
<!-- WORC_Tutorial__parameters_CT_0&#45;&gt;WORC_Tutorial__calcfeatures_train_CT_0 -->
<g id="edge10" class="edge">
<title>WORC_Tutorial__parameters_CT_0:o_output&#45;&gt;WORC_Tutorial__calcfeatures_train_CT_0:i_parameters</title>
<path fill="none" stroke="#000000" d="M341.5,-146.5C467.8294,-146.5 501.494,-161.6674 622.9368,-162.4672"/>
<polygon fill="#000000" stroke="#000000" points="622.9886,-165.9673 633,-162.5 623.0115,-158.9673 622.9886,-165.9673"/>
</g>
<!-- WORC_Tutorial__preprocessing_train_CT_0 -->
<g id="node9" class="node">
<title>WORC_Tutorial__preprocessing_train_CT_0</title>
<polygon fill="#e5e5e5" stroke="#000000" points="407,-246.5 407,-376.5 597,-376.5 597,-246.5 407,-246.5"/>
<text text-anchor="middle" x="502" y="-359.7" font-family="Times,serif" font-size="16.00" fill="#000000">preprocessing_train_CT_0</text>
<polyline fill="none" stroke="#000000" points="407,-350.5 597,-350.5 "/>
<text text-anchor="middle" x="461.5" y="-333.7" font-family="Times,serif" font-size="16.00" fill="#000000">[O] image</text>
<polyline fill="none" stroke="#000000" points="407,-324.5 516,-324.5 "/>
<text text-anchor="middle" x="461.5" y="-307.7" font-family="Times,serif" font-size="16.00" fill="#000000">[] metadata</text>
<polyline fill="none" stroke="#000000" points="407,-298.5 516,-298.5 "/>
<text text-anchor="middle" x="461.5" y="-281.7" font-family="Times,serif" font-size="16.00" fill="#000000">[] mask</text>
<polyline fill="none" stroke="#000000" points="407,-272.5 516,-272.5 "/>
<text text-anchor="middle" x="461.5" y="-255.7" font-family="Times,serif" font-size="16.00" fill="#000000">[P] parameters</text>
<polyline fill="none" stroke="#000000" points="516,-246.5 516,-350.5 "/>
<text text-anchor="middle" x="556.5" y="-294.7" font-family="Times,serif" font-size="16.00" fill="#000000">image [O]</text>
</g>
<!-- WORC_Tutorial__parameters_CT_0&#45;&gt;WORC_Tutorial__preprocessing_train_CT_0 -->
<g id="edge12" class="edge">
<title>WORC_Tutorial__parameters_CT_0:o_output&#45;&gt;WORC_Tutorial__preprocessing_train_CT_0:i_parameters</title>
<path fill="none" stroke="#000000" d="M341.5,-146.5C395.8079,-146.5 355.0218,-245.403 397.0715,-258.1522"/>
<polygon fill="#000000" stroke="#000000" points="396.6201,-261.623 407,-259.5 397.5617,-254.6866 396.6201,-261.623"/>
</g>
<!-- WORC_Tutorial__convert_seg_train_CT_0&#45;&gt;WORC_Tutorial__calcfeatures_train_CT_0 -->
<g id="edge3" class="edge">
<title>WORC_Tutorial__convert_seg_train_CT_0:o_image&#45;&gt;WORC_Tutorial__calcfeatures_train_CT_0:i_segmentation</title>
<path fill="none" stroke="#000000" d="M590,-188.5C605.2292,-188.5 611.3565,-188.5 622.8881,-188.5"/>
<polygon fill="#000000" stroke="#000000" points="623,-192.0001 633,-188.5 623,-185.0001 623,-192.0001"/>
</g>
<!-- WORC_Tutorial__preprocessing_train_CT_0&#45;&gt;WORC_Tutorial__calcfeatures_train_CT_0 -->
<g id="edge5" class="edge">
<title>WORC_Tutorial__preprocessing_train_CT_0:o_image&#45;&gt;WORC_Tutorial__calcfeatures_train_CT_0:i_image</title>
<path fill="none" stroke="#000000" d="M597,-298.5C614.2262,-298.5 613.1781,-277.7793 623.2659,-269.6853"/>
<polygon fill="#000000" stroke="#000000" points="624.5844,-272.9365 633,-266.5 622.4074,-266.2836 624.5844,-272.9365"/>
</g>
<!-- WORC_Tutorial__performance -->
<g id="node10" class="node">
<title>WORC_Tutorial__performance</title>
<polygon fill="#b0e2ff" stroke="#000000" points="1204.5,-26.5 1204.5,-78.5 1301.5,-78.5 1301.5,-26.5 1204.5,-26.5"/>
<text text-anchor="middle" x="1253" y="-61.7" font-family="Times,serif" font-size="16.00" fill="#000000">performance</text>
<polyline fill="none" stroke="#000000" points="1204.5,-52.5 1301.5,-52.5 "/>
<text text-anchor="middle" x="1242.5" y="-35.7" font-family="Times,serif" font-size="16.00" fill="#000000">[N] input</text>
<polyline fill="none" stroke="#000000" points="1280.5,-26.5 1280.5,-52.5 "/>
<text text-anchor="middle" x="1291" y="-35.7" font-family="Times,serif" font-size="16.00" fill="#000000"> </text>
</g>
<!-- WORC_Tutorial__config_classification -->
<g id="node11" class="node">
<title>WORC_Tutorial__config_classification</title>
<polygon fill="#caff70" stroke="#000000" points="668.5,-7.5 668.5,-59.5 817.5,-59.5 817.5,-7.5 668.5,-7.5"/>
<text text-anchor="middle" x="743" y="-42.7" font-family="Times,serif" font-size="16.00" fill="#000000">config_classification</text>
<polyline fill="none" stroke="#000000" points="668.5,-33.5 817.5,-33.5 "/>
<text text-anchor="middle" x="689.5" y="-16.7" font-family="Times,serif" font-size="16.00" fill="#000000"> </text>
<polyline fill="none" stroke="#000000" points="710.5,-7.5 710.5,-33.5 "/>
<text text-anchor="middle" x="764" y="-16.7" font-family="Times,serif" font-size="16.00" fill="#000000">output [Q]</text>
</g>
<!-- WORC_Tutorial__config_classification&#45;&gt;WORC_Tutorial__classify -->
<g id="edge9" class="edge">
<title>WORC_Tutorial__config_classification:o_output&#45;&gt;WORC_Tutorial__classify:i_config</title>
<path fill="none" stroke="#0000ff" stroke-width="3" d="M818,-20.5C846.9655,-20.5 854.7034,-35.4391 878.8596,-38.8238"/>
<polygon fill="#0000ff" stroke="#0000ff" stroke-width="3" points="878.7892,-42.3268 889,-39.5 879.2551,-35.3423 878.7892,-42.3268"/>
</g>
<!-- WORC_Tutorial__convert_im_train_CT_0&#45;&gt;WORC_Tutorial__preprocessing_train_CT_0 -->
<g id="edge11" class="edge">
<title>WORC_Tutorial__convert_im_train_CT_0:o_image&#45;&gt;WORC_Tutorial__preprocessing_train_CT_0:i_image</title>
<path fill="none" stroke="#000000" d="M362.5,-337.5C378.4149,-337.5 384.725,-337.5 396.888,-337.5"/>
<polygon fill="#000000" stroke="#000000" points="397,-341.0001 407,-337.5 397,-334.0001 397,-341.0001"/>
</g>
<!-- WORC_Tutorial__classify&#45;&gt;WORC_Tutorial__classification -->
<g id="edge7" class="edge">
<title>WORC_Tutorial__classify:o_classification&#45;&gt;WORC_Tutorial__classification:i_input</title>
<path fill="none" stroke="#000000" d="M1167,-117.5C1179,-117.5 1184.25,-117.5 1192.875,-117.5"/>
<polygon fill="#000000" stroke="#000000" points="1193,-121.0001 1203,-117.5 1193,-114.0001 1193,-121.0001"/>
</g>
<!-- WORC_Tutorial__classify&#45;&gt;WORC_Tutorial__performance -->
<g id="edge6" class="edge">
<title>WORC_Tutorial__classify:o_performance&#45;&gt;WORC_Tutorial__performance:i_input</title>
<path fill="none" stroke="#000000" d="M1167,-39.5C1179.4618,-39.5 1184.8408,-39.5 1193.8719,-39.5"/>
<polygon fill="#000000" stroke="#000000" points="1194,-43.0001 1204,-39.5 1194,-36.0001 1194,-43.0001"/>
</g>
</g>
</svg>
